# xmcd
#
# Track frame offsets: 
#        150
#        9484
#        19175
#        33331
#        43198
#        53643
#        63467
#        73363
#        83385
#        92310
#
# Disc length: 1336 seconds
#
# Revision: 0
# Processed by: cddbd v1.5.2PL0 Copyright (c) Steve Scherf et al.
# Submitted via: ExactAudioCopy v0.95b3
#
DISCID=7505360a
DTITLE=Buck Owens and Susan Raye - Merry Christmas From Buck Owens and S
DTITLE=usan Raye
DYEAR=1971
DGENRE=Christmas
TTITLE0=One Of Everything You Got
TTITLE1=Home On Christmas Day
TTITLE2=All I Want For Christmas Is My
TTITLE3=A Very Merry Christmas
TTITLE4=It's Not What You Give
TTITLE5=Good Old Fashioned Country Chr
TTITLE6=Christmas Isn't Christmas Dear
TTITLE7=Santa Looked A Lot Like Daddy
TTITLE8=Santa's Gonna Come In A Stagec
TTITLE9=Tomorrow Is Christmas Day
EXTD=
EXTT0=
EXTT1=
EXTT2=
EXTT3=
EXTT4=
EXTT5=
EXTT6=
EXTT7=
EXTT8=
EXTT9=
PLAYORDER=
